<?xml version="1.0" standalone="no"?>
<!DOCTYPE svg PUBLIC "-//W3C//DTD SVG 20010904//EN"
 "http://www.w3.org/TR/2001/REC-SVG-20010904/DTD/svg10.dtd">
<svg version="1.0" xmlns="http://www.w3.org/2000/svg"
 width="1280.000000pt" height="640.000000pt" viewBox="0 0 1280.000000 640.000000"
 preserveAspectRatio="xMidYMid meet">
<metadata>
Created by potrace 1.15, written by Peter Selinger 2001-2017
</metadata>
<g transform="translate(0.000000,640.000000) scale(0.100000,-0.100000)"
fill="#000000" stroke="none">
<path d="M2725 6278 c-368 -37 -803 -188 -1170 -408 -824 -493 -1384 -1314
-1499 -2201 -66 -507 5 -967 218 -1404 337 -692 967 -1127 1596 -1102 202 9
349 47 535 139 182 90 385 239 385 282 0 9 -10 27 -23 40 -19 19 -38 24 -111
30 -431 35 -939 373 -1283 854 -221 308 -366 685 -425 1102 -20 143 -17 555 5
698 66 423 212 738 456 983 296 295 685 438 1198 439 715 1 1286 -332 1830
-1070 130 -177 483 -725 483 -751 0 -4 -28 -27 -63 -52 -76 -54 -178 -161
-232 -242 -200 -302 -229 -812 -73 -1285 74 -224 210 -464 389 -690 96 -121
394 -423 519 -527 329 -271 836 -554 1311 -731 701 -261 1580 -367 2292 -276
748 96 1437 365 1912 747 94 76 281 266 349 355 27 35 88 128 136 207 110 180
149 230 323 418 485 525 733 907 862 1332 51 170 68 302 62 480 -8 224 -61
405 -169 571 -124 191 -296 322 -488 370 -86 22 -253 22 -344 0 -272 -66 -514
-347 -516 -598 0 -41 5 -52 36 -82 22 -22 60 -43 98 -56 93 -31 180 -86 273
-174 142 -134 223 -282 265 -486 28 -136 21 -383 -15 -520 -67 -258 -209 -440
-426 -549 -271 -137 -594 -151 -906 -41 -293 104 -579 302 -896 619 -264 265
-418 457 -655 816 -369 562 -469 711 -566 841 -280 374 -517 596 -773 724
-173 87 -279 112 -465 113 -98 1 -173 -5 -232 -16 -289 -57 -532 -197 -704
-406 l-53 -64 75 -148 c256 -505 744 -1195 1269 -1793 172 -195 645 -679 783
-800 433 -380 842 -611 1327 -751 l150 -43 0 -39 0 -38 -125 -3 c-270 -7 -562
25 -804 88 -668 174 -1389 634 -1942 1241 -419 458 -699 852 -1287 1804 -115
187 -260 417 -322 510 -718 1086 -1432 1562 -2330 1554 -82 -1 -190 -6 -240
-11z"/>
</g>
</svg>
